NotoSansZanabazarSquare-Regular.ufo
<glyph name="dottedCircle" format="2">
  <advance width="600"/>
  <unicode hex="25CC"/>
  <guideline x="2110" y="366" angle="90"/>
  <anchor x="295" y="-73" name="anudatta"/>
  <anchor x="600" y="0" name="anusvara"/>
  <anchor x="295" y="-12" name="bottom"/>
  <anchor x="295" y="-12" name="bottom1"/>
  <anchor x="387" y="614" name="iiMatra"/>
  <anchor x="600" y="0" name="post"/>
  <anchor x="600" y="0" name="repha"/>
  <anchor x="295" y="900" name="svara"/>
  <anchor x="295" y="640" name="top"/>
  <anchor x="88" y="566" name="topleft"/>
  <anchor x="550" y="566" name="topright"/>
  <anchor x="600" y="0" name="vattu"/>
  <anchor x="436" y="546" name="virama"/>
  <anchor x="500" y="0" name="yaphalaa"/>
  <outline>
    <contour>
      <point x="392" y="438" type="curve" smooth="yes"/>
      <point x="405" y="438"/>
      <point x="416" y="449"/>
      <point x="416" y="462" type="curve" smooth="yes"/>
      <point x="416" y="475"/>
      <point x="405" y="486"/>
      <point x="392" y="486" type="curve" smooth="yes"/>
      <point x="379" y="486"/>
      <point x="368" y="475"/>
      <point x="368" y="462" type="curve" smooth="yes"/>
      <point x="368" y="449"/>
      <point x="379" y="438"/>
    </contour>
    <contour>
      <point x="125" y="172" type="curve" smooth="yes"/>
      <point x="138" y="172"/>
      <point x="149" y="183"/>
      <point x="149" y="196" type="curve" smooth="yes"/>
      <point x="149" y="209"/>
      <point x="138" y="220"/>
      <point x="125" y="220" type="curve" smooth="yes"/>
      <point x="112" y="220"/>
      <point x="101" y="209"/>
      <point x="101" y="196" type="curve" smooth="yes"/>
      <point x="101" y="183"/>
      <point x="112" y="172"/>
    </contour>
    <contour>
      <point x="198" y="100" type="curve" smooth="yes"/>
      <point x="211" y="100"/>
      <point x="222" y="111"/>
      <point x="222" y="124" type="curve" smooth="yes"/>
      <point x="222" y="137"/>
      <point x="211" y="148"/>
      <point x="198" y="148" type="curve" smooth="yes"/>
      <point x="185" y="148"/>
      <point x="174" y="137"/>
      <point x="174" y="124" type="curve" smooth="yes"/>
      <point x="174" y="111"/>
      <point x="185" y="100"/>
    </contour>
    <contour>
      <point x="101" y="267" type="curve" smooth="yes"/>
      <point x="114" y="267"/>
      <point x="125" y="278"/>
      <point x="125" y="291" type="curve" smooth="yes"/>
      <point x="125" y="304"/>
      <point x="114" y="315"/>
      <point x="101" y="315" type="curve" smooth="yes"/>
      <point x="88" y="315"/>
      <point x="77" y="304"/>
      <point x="77" y="291" type="curve" smooth="yes"/>
      <point x="77" y="278"/>
      <point x="88" y="267"/>
    </contour>
    <contour>
      <point x="295" y="73" type="curve" smooth="yes"/>
      <point x="308" y="73"/>
      <point x="319" y="84"/>
      <point x="319" y="97" type="curve" smooth="yes"/>
      <point x="319" y="110"/>
      <point x="308" y="121"/>
      <point x="295" y="121" type="curve" smooth="yes"/>
      <point x="282" y="121"/>
      <point x="271" y="110"/>
      <point x="271" y="97" type="curve" smooth="yes"/>
      <point x="271" y="84"/>
      <point x="282" y="73"/>
    </contour>
    <contour>
      <point x="393" y="101" type="curve" smooth="yes"/>
      <point x="406" y="101"/>
      <point x="417" y="112"/>
      <point x="417" y="125" type="curve" smooth="yes"/>
      <point x="417" y="138"/>
      <point x="406" y="149"/>
      <point x="393" y="149" type="curve" smooth="yes"/>
      <point x="380" y="149"/>
      <point x="369" y="138"/>
      <point x="369" y="125" type="curve" smooth="yes"/>
      <point x="369" y="112"/>
      <point x="380" y="101"/>
    </contour>
    <contour>
      <point x="127" y="368" type="curve" smooth="yes"/>
      <point x="140" y="368"/>
      <point x="151" y="379"/>
      <point x="151" y="392" type="curve" smooth="yes"/>
      <point x="151" y="405"/>
      <point x="140" y="416"/>
      <point x="127" y="416" type="curve" smooth="yes"/>
      <point x="114" y="416"/>
      <point x="103" y="405"/>
      <point x="103" y="392" type="curve" smooth="yes"/>
      <point x="103" y="379"/>
      <point x="114" y="368"/>
    </contour>
    <contour>
      <point x="198" y="438" type="curve" smooth="yes"/>
      <point x="211" y="438"/>
      <point x="222" y="449"/>
      <point x="222" y="462" type="curve" smooth="yes"/>
      <point x="222" y="475"/>
      <point x="211" y="486"/>
      <point x="198" y="486" type="curve" smooth="yes"/>
      <point x="185" y="486"/>
      <point x="174" y="475"/>
      <point x="174" y="462" type="curve" smooth="yes"/>
      <point x="174" y="449"/>
      <point x="185" y="438"/>
    </contour>
    <contour>
      <point x="464" y="173" type="curve" smooth="yes"/>
      <point x="477" y="173"/>
      <point x="488" y="184"/>
      <point x="488" y="197" type="curve" smooth="yes"/>
      <point x="488" y="210"/>
      <point x="477" y="221"/>
      <point x="464" y="221" type="curve" smooth="yes"/>
      <point x="451" y="221"/>
      <point x="440" y="210"/>
      <point x="440" y="197" type="curve" smooth="yes"/>
      <point x="440" y="184"/>
      <point x="451" y="173"/>
    </contour>
    <contour>
      <point x="295" y="462" type="curve" smooth="yes"/>
      <point x="308" y="462"/>
      <point x="319" y="473"/>
      <point x="319" y="486" type="curve" smooth="yes"/>
      <point x="319" y="499"/>
      <point x="308" y="510"/>
      <point x="295" y="510" type="curve" smooth="yes"/>
      <point x="282" y="510"/>
      <point x="271" y="499"/>
      <point x="271" y="486" type="curve" smooth="yes"/>
      <point x="271" y="473"/>
      <point x="282" y="462"/>
    </contour>
    <contour>
      <point x="492" y="267" type="curve" smooth="yes"/>
      <point x="505" y="267"/>
      <point x="516" y="278"/>
      <point x="516" y="291" type="curve" smooth="yes"/>
      <point x="516" y="304"/>
      <point x="505" y="315"/>
      <point x="492" y="315" type="curve" smooth="yes"/>
      <point x="479" y="315"/>
      <point x="468" y="304"/>
      <point x="468" y="291" type="curve" smooth="yes"/>
      <point x="468" y="278"/>
      <point x="479" y="267"/>
    </contour>
    <contour>
      <point x="462" y="366" type="curve" smooth="yes"/>
      <point x="475" y="366"/>
      <point x="486" y="377"/>
      <point x="486" y="390" type="curve" smooth="yes"/>
      <point x="486" y="403"/>
      <point x="475" y="414"/>
      <point x="462" y="414" type="curve" smooth="yes"/>
      <point x="449" y="414"/>
      <point x="438" y="403"/>
      <point x="438" y="390" type="curve" smooth="yes"/>
      <point x="438" y="377"/>
      <point x="449" y="366"/>
    </contour>
  </outline>
</glyph>
<glyph name="a_zanb" format="2">
  <advance width="1136"/>
  <unicode hex="11A00"/>
  <anchor x="716" y="-86" name="bottom"/>
  <anchor x="960" y="0" name="bottom_right"/>
  <anchor x="568" y="778" name="top"/>
  <anchor x="80" y="678" name="topleft"/>
  <anchor x="1056" y="678" name="topright"/>
  <outline>
    <contour>
      <point x="80" y="0" type="line"/>
      <point x="470" y="0" type="line"/>
      <point x="470" y="592" type="line"/>
      <point x="666" y="592" type="line"/>
      <point x="666" y="0" type="line"/>
      <point x="1056" y="0" type="line"/>
      <point x="1056" y="678" type="line"/>
      <point x="960" y="678" type="line"/>
      <point x="960" y="86" type="line"/>
      <point x="762" y="86" type="line"/>
      <point x="762" y="678" type="line"/>
      <point x="374" y="678" type="line"/>
      <point x="374" y="86" type="line"/>
      <point x="176" y="86" type="line"/>
      <point x="176" y="678" type="line"/>
      <point x="80" y="678" type="line"/>
    </contour>
  </outline>
</glyph>
<glyph name="i_zanb" format="2">
  <unicode hex="11A01"/>
  <guideline x="838" y="732" angle="0"/>
  <guideline x="432" y="752" angle="180"/>
  <anchor x="-413" y="798" name="_top"/>
  <anchor x="-413" y="1035" name="top"/>
  <outline>
    <contour>
      <point x="-93" y="702" type="curve"/>
      <point x="-87" y="702" type="line"/>
      <point x="-138" y="795"/>
      <point x="-268" y="917"/>
      <point x="-433" y="917" type="curve" smooth="yes"/>
      <point x="-568" y="917"/>
      <point x="-686" y="835"/>
      <point x="-737" y="752" type="curve"/>
      <point x="-731" y="752" type="line"/>
      <point x="-656" y="806"/>
      <point x="-542" y="833"/>
      <point x="-432" y="831" type="curve" smooth="yes"/>
      <point x="-282" y="828"/>
      <point x="-168" y="766"/>
    </contour>
  </outline>
</glyph>
<glyph name="ue_zanb" format="2">
  <unicode hex="11A02"/>
  <anchor x="-420" y="-120" name="_bottom"/>
  <anchor x="-420" y="-419" name="bottom"/>
  <outline>
    <contour>
      <point x="-420" y="-318" type="curve" smooth="yes"/>
      <point x="-265" y="-318"/>
      <point x="-129" y="-216"/>
      <point x="-80" y="-73" type="curve"/>
      <point x="-86" y="-73" type="line"/>
      <point x="-200" y="-190"/>
      <point x="-311" y="-232"/>
      <point x="-420" y="-232" type="curve" smooth="yes"/>
      <point x="-530" y="-232"/>
      <point x="-639" y="-191"/>
      <point x="-754" y="-73" type="curve"/>
      <point x="-760" y="-73" type="line"/>
      <point x="-711" y="-216"/>
      <point x="-575" y="-318"/>
    </contour>
  </outline>
</glyph>
<glyph name="u_zanb" format="2">
  <unicode hex="11A03"/>
  <anchor x="-176" y="38" name="_bottom_right"/>
  <outline>
    <contour>
      <point x="-760" y="-232" type="line"/>
      <point x="-80" y="-232" type="line"/>
      <point x="-80" y="49" type="line"/>
      <point x="-128" y="49" type="line"/>
      <point x="-128" y="-146" type="line"/>
      <point x="-760" y="-146" type="line"/>
    </contour>
  </outline>
</glyph>
<glyph name="e_zanb" format="2">
  <unicode hex="11A04"/>
  <anchor x="-420" y="813" name="_top"/>
  <anchor x="-421" y="995" name="top"/>
  <outline>
    <contour>
      <point x="-142" y="641" type="line"/>
      <point x="-80" y="641" type="line"/>
      <point x="-80" y="944" type="line"/>
      <point x="-760" y="944" type="line"/>
      <point x="-760" y="858" type="line"/>
      <point x="-142" y="858" type="line"/>
    </contour>
  </outline>
</glyph>
<glyph name="oe_zanb" format="2">
  <unicode hex="11A05"/>
  <anchor x="-420" y="808" name="_top"/>
  <anchor x="-421" y="965" name="top"/>
  <outline>
    <contour>
      <point x="-445" y="641" type="line"/>
      <point x="-395" y="641" type="line"/>
      <point x="-395" y="858" type="line"/>
      <point x="-80" y="858" type="line"/>
      <point x="-80" y="944" type="line"/>
      <point x="-760" y="944" type="line"/>
      <point x="-760" y="858" type="line"/>
      <point x="-445" y="858" type="line"/>
    </contour>
  </outline>
</glyph>
<glyph name="o_zanb" format="2">
  <unicode hex="11A06"/>
  <guideline x="422" y="776" angle="90"/>
  <anchor x="-419" y="811" name="_top"/>
  <anchor x="-421" y="994" name="top"/>
  <outline>
    <contour>
      <point x="-421" y="711" type="line"/>
      <point x="-348" y="858" type="line"/>
      <point x="-80" y="858" type="line"/>
      <point x="-80" y="949" type="line"/>
      <point x="-92" y="949" type="line"/>
      <point x="-110" y="944" type="line"/>
      <point x="-363" y="944" type="line"/>
      <point x="-419" y="829" type="line"/>
      <point x="-423" y="829" type="line"/>
      <point x="-480" y="944" type="line"/>
      <point x="-733" y="944" type="line"/>
      <point x="-751" y="949" type="line"/>
      <point x="-763" y="949" type="line"/>
      <point x="-763" y="858" type="line"/>
      <point x="-495" y="858" type="line"/>
    </contour>
  </outline>
</glyph>
<glyph name="ai_zanb" format="2">
  <unicode hex="11A07"/>
  <anchor x="-58" y="713" name="_topright"/>
  <outline>
    <contour>
      <point x="-120" y="651" type="line"/>
      <point x="-58" y="651" type="line"/>
      <point x="-58" y="858" type="line"/>
      <point x="75" y="858" type="line"/>
      <point x="75" y="944" type="line"/>
      <point x="-120" y="944" type="line"/>
    </contour>
  </outline>
</glyph>
<glyph name="au_zanb" format="2">
  <unicode hex="11A08"/>
  <anchor x="-142" y="713" name="_topleft"/>
  <outline>
    <contour>
      <point x="-142" y="651" type="line"/>
      <point x="-80" y="651" type="line"/>
      <point x="-80" y="944" type="line"/>
      <point x="-276" y="944" type="line"/>
      <point x="-276" y="858" type="line"/>
      <point x="-142" y="858" type="line"/>
    </contour>
  </outline>
</glyph>
<glyph name="reversed_i_zanb" format="2">
  <unicode hex="11A09"/>
  <anchor x="-413" y="798" name="_top"/>
  <anchor x="-381" y="1035" name="top"/>
  <outline>
    <contour>
      <point x="-730" y="702" type="curve"/>
      <point x="-724" y="702" type="line"/>
      <point x="-649" y="766"/>
      <point x="-535" y="827"/>
      <point x="-385" y="831" type="curve" smooth="yes"/>
      <point x="-275" y="834"/>
      <point x="-161" y="806"/>
      <point x="-86" y="752" type="curve"/>
      <point x="-80" y="752" type="line"/>
      <point x="-131" y="835"/>
      <point x="-249" y="917"/>
      <point x="-384" y="917" type="curve" smooth="yes"/>
      <point x="-549" y="917"/>
      <point x="-679" y="795"/>
    </contour>
  </outline>
</glyph>
<glyph name="lengthMark_zanb" format="2">
  <unicode hex="11A0A"/>
  <anchor x="-176" y="0" name="_bottom_right"/>
  <outline>
    <contour>
      <point x="142" y="-131" type="curve"/>
      <point x="141" y="-123" type="line"/>
      <point x="64" y="-26"/>
      <point x="-9" y="38"/>
      <point x="-81" y="90" type="curve"/>
      <point x="-176" y="0" type="line"/>
      <point x="-66" y="-33"/>
      <point x="38" y="-75"/>
    </contour>
  </outline>
</glyph>
<glyph name="ka_zanb" format="2">
  <advance width="840"/>
  <unicode hex="11A0B"/>
  <anchor x="420" y="-86" name="bottom"/>
  <anchor x="664" y="0" name="bottom_right"/>
  <anchor x="420" y="778" name="top"/>
  <anchor x="80" y="678" name="topleft"/>
  <anchor x="760" y="678" name="topright"/>
  <outline>
    <contour>
      <point x="80" y="0" type="line"/>
      <point x="468" y="0" type="line"/>
      <point x="468" y="592" type="line"/>
      <point x="664" y="592" type="line"/>
      <point x="664" y="0" type="line"/>
      <point x="760" y="0" type="line"/>
      <point x="760" y="678" type="line"/>
      <point x="80" y="678" type="line"/>
      <point x="80" y="592" type="line"/>
      <point x="372" y="592" type="line"/>
      <point x="372" y="86" type="line"/>
      <point x="176" y="86" type="line"/>
      <point x="176" y="391" type="line"/>
      <point x="80" y="391" type="line"/>
    </contour>
  </outline>
</glyph>
<glyph name="ga_zanb" format="2">
  <advance width="840"/>
  <unicode hex="11A0D"/>
  <anchor x="420" y="-86" name="bottom"/>
  <anchor x="664" y="0" name="bottom_right"/>
  <anchor x="420" y="778" name="top"/>
  <anchor x="80" y="678" name="topleft"/>
  <anchor x="760" y="678" name="topright"/>
  <outline>
    <contour>
      <point x="80" y="0" type="line"/>
      <point x="468" y="0" type="line"/>
      <point x="468" y="592" type="line"/>
      <point x="664" y="592" type="line"/>
      <point x="664" y="0" type="line"/>
      <point x="760" y="0" type="line"/>
      <point x="760" y="678" type="line"/>
      <point x="80" y="678" type="line"/>
    </contour>
    <contour>
      <point x="176" y="86" type="line"/>
      <point x="176" y="592" type="line"/>
      <point x="372" y="592" type="line"/>
      <point x="372" y="86" type="line"/>
    </contour>
  </outline>
</glyph>
<glyph name="nga_zanb" format="2">
  <advance width="840"/>
  <unicode hex="11A0F"/>
  <anchor x="420" y="-86" name="bottom"/>
  <anchor x="664" y="0" name="bottom_right"/>
  <anchor x="420" y="778" name="top"/>
  <anchor x="80" y="678" name="topleft"/>
  <anchor x="760" y="678" name="topright"/>
  <outline>
    <contour>
      <point x="80" y="0" type="line"/>
      <point x="760" y="0" type="line"/>
      <point x="760" y="86" type="line"/>
      <point x="176" y="86" type="line"/>
      <point x="176" y="300" type="line"/>
      <point x="759" y="300" type="line"/>
      <point x="759" y="678" type="line"/>
      <point x="80" y="678" type="line"/>
      <point x="80" y="592" type="line"/>
      <point x="663" y="592" type="line"/>
      <point x="663" y="386" type="line"/>
      <point x="80" y="386" type="line"/>
    </contour>
  </outline>
</glyph>
<glyph name="tta_zanb" format="2">
  <advance width="840"/>
  <unicode hex="11A14"/>
  <guideline x="503" y="252" angle="58.0576"/>
  <anchor x="396" y="-86" name="bottom"/>
  <anchor x="664" y="0" name="bottom_right"/>
  <anchor x="420" y="778" name="top"/>
  <anchor x="80" y="678" name="topleft"/>
  <anchor x="760" y="678" name="topright"/>
  <outline>
    <contour>
      <point x="80" y="0" type="line"/>
      <point x="176" y="0" type="line"/>
      <point x="176" y="323" type="line"/>
      <point x="595" y="323" type="line"/>
      <point x="394" y="0" type="line"/>
      <point x="505" y="0" type="line"/>
      <point x="760" y="409" type="line"/>
      <point x="176" y="409" type="line"/>
      <point x="176" y="592" type="line"/>
      <point x="760" y="592" type="line"/>
      <point x="760" y="678" type="line"/>
      <point x="80" y="678" type="line"/>
    </contour>
  </outline>
</glyph>
<glyph name="ttha_zanb" format="2">
  <advance width="840"/>
  <unicode hex="11A15"/>
  <guideline x="420" y="678" angle="180"/>
  <guideline x="323" y="515" angle="131.4771"/>
  <guideline x="551" y="426" angle="48.0529"/>
  <anchor x="420" y="-86" name="bottom"/>
  <anchor x="664" y="0" name="bottom_right"/>
  <anchor x="420" y="778" name="top"/>
  <anchor x="80" y="678" name="topleft"/>
  <anchor x="760" y="678" name="topright"/>
  <outline>
    <contour>
      <point x="80" y="0" type="line"/>
      <point x="760" y="0" type="line"/>
      <point x="760" y="25" type="line"/>
      <point x="476" y="342" type="line"/>
      <point x="760" y="653" type="line"/>
      <point x="760" y="678" type="line"/>
      <point x="80" y="678" type="line"/>
      <point x="80" y="653" type="line"/>
      <point x="362" y="339" type="line"/>
      <point x="80" y="25" type="line"/>
    </contour>
    <contour>
      <point x="246" y="86" type="line"/>
      <point x="420" y="280" type="line"/>
      <point x="588" y="86" type="line"/>
    </contour>
    <contour>
      <point x="420" y="405" type="line"/>
      <point x="255" y="592" type="line"/>
      <point x="589" y="592" type="line"/>
    </contour>
  </outline>
</glyph>
<glyph name="ddha_zanb" format="2">
  <advance width="840"/>
  <unicode hex="11A17"/>
  <anchor x="420" y="-86" name="bottom"/>
  <anchor x="664" y="0" name="bottom_right"/>
  <anchor x="420" y="778" name="top"/>
  <anchor x="80" y="678" name="topleft"/>
  <anchor x="760" y="678" name="topright"/>
  <outline>
    <contour>
      <point x="80" y="0" type="line"/>
      <point x="760" y="0" type="line"/>
      <point x="760" y="98" type="line"/>
      <point x="209" y="592" type="line"/>
      <point x="760" y="592" type="line"/>
      <point x="760" y="678" type="line"/>
      <point x="80" y="678" type="line"/>
      <point x="80" y="580" type="line"/>
      <point x="621" y="86" type="line"/>
      <point x="80" y="86" type="line"/>
    </contour>
    <contour>
      <point x="664" y="412" type="line"/>
      <point x="760" y="412" type="line"/>
      <point x="760" y="675" type="line"/>
      <point x="664" y="675" type="line"/>
    </contour>
  </outline>
</glyph>
<glyph name="nna_zanb" format="2">
  <advance width="840"/>
  <unicode hex="11A18"/>
  <guideline x="429" y="204" angle="153.2755"/>
  <guideline x="419" y="344" angle="207.0422"/>
  <anchor x="420" y="-86" name="bottom"/>
  <anchor x="664" y="0" name="bottom_right"/>
  <anchor x="420" y="778" name="top"/>
  <anchor x="80" y="678" name="topleft"/>
  <anchor x="760" y="678" name="topright"/>
  <outline>
    <contour>
      <point x="664" y="-20" type="line"/>
      <point x="760" y="23" type="line"/>
      <point x="760" y="678" type="line"/>
      <point x="80" y="678" type="line"/>
      <point x="80" y="592" type="line"/>
      <point x="664" y="592" type="line"/>
      <point x="664" y="562" type="line"/>
      <point x="90" y="269" type="line"/>
    </contour>
    <contour>
      <point x="664" y="86" type="line"/>
      <point x="285" y="276" type="line"/>
      <point x="664" y="469" type="line"/>
    </contour>
  </outline>
</glyph>
<glyph name="ta_zanb" format="2">
  <advance width="840"/>
  <unicode hex="11A19"/>
  <anchor x="420" y="-86" name="bottom"/>
  <anchor x="664" y="0" name="bottom_right"/>
  <anchor x="420" y="778" name="top"/>
  <anchor x="80" y="678" name="topleft"/>
  <anchor x="760" y="678" name="topright"/>
  <outline>
    <contour>
      <point x="80" y="0" type="line"/>
      <point x="176" y="0" type="line"/>
      <point x="176" y="323" type="line"/>
      <point x="664" y="323" type="line"/>
      <point x="664" y="0" type="line"/>
      <point x="760" y="0" type="line"/>
      <point x="760" y="409" type="line"/>
      <point x="176" y="409" type="line"/>
      <point x="176" y="592" type="line"/>
      <point x="760" y="592" type="line"/>
      <point x="760" y="678" type="line"/>
      <point x="80" y="678" type="line"/>
    </contour>
  </outline>
</glyph>
<glyph name="dha_zanb" format="2">
  <advance width="840"/>
  <unicode hex="11A1C"/>
  <anchor x="420" y="-86" name="bottom"/>
  <anchor x="626" y="0" name="bottom_right"/>
  <anchor x="401" y="778" name="top"/>
  <anchor x="80" y="678" name="topleft"/>
  <anchor x="760" y="678" name="topright"/>
  <outline>
    <contour>
      <point x="80" y="0" type="line"/>
      <point x="176" y="0" type="line"/>
      <point x="176" y="332" type="line"/>
      <point x="551" y="332" type="line"/>
      <point x="551" y="327" type="line"/>
      <point x="484" y="303"/>
      <point x="411" y="250"/>
      <point x="411" y="161" type="curve" smooth="yes"/>
      <point x="411" y="82"/>
      <point x="470" y="29"/>
      <point x="531" y="0" type="curve"/>
      <point x="760" y="0" type="line"/>
      <point x="760" y="15" type="line"/>
      <point x="642" y="34"/>
      <point x="517" y="74"/>
      <point x="517" y="166" type="curve" smooth="yes"/>
      <point x="517" y="262"/>
      <point x="646" y="323"/>
      <point x="760" y="332" type="curve"/>
      <point x="760" y="418" type="line"/>
      <point x="176" y="418" type="line"/>
      <point x="176" y="592" type="line"/>
      <point x="760" y="592" type="line"/>
      <point x="760" y="678" type="line"/>
      <point x="80" y="678" type="line"/>
    </contour>
  </outline>
</glyph>
<glyph name="bha_zanb" format="2">
  <advance width="840"/>
  <unicode hex="11A21"/>
  <anchor x="420" y="-86" name="bottom"/>
  <anchor x="664" y="0" name="bottom_right"/>
  <anchor x="420" y="778" name="top"/>
  <anchor x="80" y="678" name="topleft"/>
  <anchor x="760" y="678" name="topright"/>
  <outline>
    <contour>
      <point x="80" y="0" type="line"/>
      <point x="760" y="0" type="line"/>
      <point x="760" y="678" type="line"/>
      <point x="80" y="678" type="line"/>
      <point x="80" y="668" type="line"/>
      <point x="188" y="553"/>
      <point x="251" y="457"/>
      <point x="251" y="354" type="curve" smooth="yes"/>
      <point x="251" y="242"/>
      <point x="196" y="136"/>
      <point x="80" y="10" type="curve"/>
    </contour>
    <contour>
      <point x="252" y="86" type="line"/>
      <point x="252" y="88" type="line"/>
      <point x="313" y="157"/>
      <point x="361" y="244"/>
      <point x="361" y="353" type="curve" smooth="yes"/>
      <point x="361" y="461"/>
      <point x="283" y="551"/>
      <point x="251" y="586" type="curve"/>
      <point x="251" y="589" type="line"/>
      <point x="664" y="592" type="line"/>
      <point x="664" y="86" type="line"/>
    </contour>
  </outline>
</glyph>
<glyph name="tsa_zanb" format="2">
  <advance width="840"/>
  <unicode hex="11A23"/>
  <anchor x="420" y="-86" name="bottom"/>
  <anchor x="664" y="0" name="bottom_right"/>
  <anchor x="420" y="778" name="top"/>
  <anchor x="80" y="678" name="topleft"/>
  <anchor x="760" y="678" name="topright"/>
  <outline>
    <contour>
      <point x="80" y="0" type="line"/>
      <point x="760" y="0" type="line"/>
      <point x="760" y="678" type="line"/>
      <point x="800" y="750" type="line"/>
      <point x="850" y="736"/>
      <point x="898" y="733"/>
      <point x="950" y="733" type="curve"/>
      <point x="969" y="768"/>
      <point x="980" y="810"/>
      <point x="976" y="859" type="curve"/>
      <point x="942" y="848"/>
      <point x="909" y="844"/>
      <point x="878" y="844" type="curve" smooth="yes"/>
      <point x="847" y="844"/>
      <point x="816" y="848"/>
      <point x="784" y="855" type="curve"/>
      <point x="685" y="678" type="line"/>
      <point x="80" y="678" type="line"/>
      <point x="80" y="592" type="line"/>
      <point x="372" y="592" type="line"/>
      <point x="372" y="86" type="line"/>
      <point x="80" y="86" type="line"/>
    </contour>
    <contour>
      <point x="468" y="86" type="line"/>
      <point x="468" y="592" type="line"/>
      <point x="664" y="592" type="line"/>
      <point x="664" y="86" type="line"/>
    </contour>
  </outline>
</glyph>
<glyph name="dza_zanb" format="2">
  <advance width="840"/>
  <unicode hex="11A25"/>
  <guideline x="786" y="770" angle="244.0412"/>
  <anchor x="420" y="-86" name="bottom"/>
  <anchor x="664" y="0" name="bottom_right"/>
  <anchor x="420" y="778" name="top"/>
  <anchor x="80" y="678" name="topleft"/>
  <anchor x="760" y="678" name="topright"/>
  <outline>
    <contour>
      <point x="80" y="0" type="line"/>
      <point x="760" y="0" type="line"/>
      <point x="760" y="86" type="line"/>
      <point x="176" y="86" type="line"/>
      <point x="176" y="296" type="line"/>
      <point x="760" y="296" type="line"/>
      <point x="760" y="382" type="line"/>
      <point x="176" y="382" type="line"/>
      <point x="176" y="592" type="line"/>
      <point x="693" y="592" type="line"/>
      <point x="781" y="750" type="line"/>
      <point x="831" y="736"/>
      <point x="879" y="733"/>
      <point x="931" y="733" type="curve"/>
      <point x="950" y="768"/>
      <point x="961" y="810"/>
      <point x="957" y="859" type="curve"/>
      <point x="923" y="848"/>
      <point x="890" y="844"/>
      <point x="859" y="844" type="curve" smooth="yes"/>
      <point x="828" y="844"/>
      <point x="797" y="848"/>
      <point x="765" y="855" type="curve"/>
      <point x="666" y="678" type="line"/>
      <point x="80" y="678" type="line"/>
    </contour>
  </outline>
</glyph>
<glyph name="dzha_zanb" format="2">
  <advance width="840"/>
  <unicode hex="11A26"/>
  <anchor x="420" y="-86" name="bottom"/>
  <anchor x="664" y="0" name="bottom_right"/>
  <anchor x="420" y="778" name="top"/>
  <anchor x="80" y="678" name="topleft"/>
  <anchor x="760" y="678" name="topright"/>
  <outline>
    <contour>
      <point x="80" y="0" type="line"/>
      <point x="760" y="0" type="line"/>
      <point x="760" y="86" type="line"/>
      <point x="176" y="86" type="line"/>
      <point x="176" y="296" type="line"/>
      <point x="450" y="296" type="line"/>
      <point x="450" y="382" type="line"/>
      <point x="176" y="382" type="line"/>
      <point x="176" y="592" type="line"/>
      <point x="693" y="592" type="line"/>
      <point x="781" y="750" type="line"/>
      <point x="831" y="736"/>
      <point x="879" y="733"/>
      <point x="931" y="733" type="curve"/>
      <point x="950" y="768"/>
      <point x="961" y="810"/>
      <point x="957" y="859" type="curve"/>
      <point x="923" y="848"/>
      <point x="890" y="844"/>
      <point x="859" y="844" type="curve" smooth="yes"/>
      <point x="828" y="844"/>
      <point x="797" y="848"/>
      <point x="765" y="855" type="curve"/>
      <point x="666" y="678" type="line"/>
      <point x="80" y="678" type="line"/>
    </contour>
    <contour>
      <point x="595" y="163" type="curve" smooth="yes"/>
      <point x="642" y="163"/>
      <point x="684" y="182"/>
      <point x="715" y="212" type="curve"/>
      <point x="648" y="272" type="line"/>
      <point x="634" y="260"/>
      <point x="615" y="253"/>
      <point x="595" y="253" type="curve" smooth="yes"/>
      <point x="548" y="253"/>
      <point x="511" y="290"/>
      <point x="511" y="337" type="curve" smooth="yes"/>
      <point x="511" y="383"/>
      <point x="548" y="420"/>
      <point x="595" y="420" type="curve" smooth="yes"/>
      <point x="620" y="420"/>
      <point x="642" y="409"/>
      <point x="657" y="392" type="curve"/>
      <point x="725" y="450" type="line"/>
      <point x="693" y="487"/>
      <point x="647" y="510"/>
      <point x="595" y="510" type="curve" smooth="yes"/>
      <point x="499" y="510"/>
      <point x="421" y="432"/>
      <point x="421" y="337" type="curve" smooth="yes"/>
      <point x="421" y="241"/>
      <point x="499" y="163"/>
    </contour>
  </outline>
</glyph>
<glyph name="zha_zanb" format="2">
  <advance width="840"/>
  <unicode hex="11A27"/>
  <anchor x="420" y="-86" name="bottom"/>
  <anchor x="664" y="0" name="bottom_right"/>
  <anchor x="420" y="778" name="top"/>
  <anchor x="80" y="678" name="topleft"/>
  <anchor x="760" y="678" name="topright"/>
  <outline>
    <contour>
      <point x="80" y="0" type="line"/>
      <point x="176" y="0" type="line"/>
      <point x="176" y="592" type="line"/>
      <point x="664" y="592" type="line"/>
      <point x="664" y="403" type="line"/>
      <point x="596" y="403" type="line" smooth="yes"/>
      <point x="413" y="403"/>
      <point x="323" y="338"/>
      <point x="323" y="197" type="curve" smooth="yes"/>
      <point x="323" y="61"/>
      <point x="413" y="0"/>
      <point x="596" y="0" type="curve" smooth="yes"/>
      <point x="760" y="0" type="line"/>
      <point x="760" y="678" type="line"/>
      <point x="80" y="678" type="line"/>
    </contour>
    <contour>
      <point x="596" y="86" type="line" smooth="yes"/>
      <point x="478" y="86"/>
      <point x="419" y="127"/>
      <point x="419" y="197" type="curve" smooth="yes"/>
      <point x="419" y="273"/>
      <point x="478" y="317"/>
      <point x="596" y="317" type="curve" smooth="yes"/>
      <point x="664" y="317" type="line"/>
      <point x="664" y="86" type="line"/>
    </contour>
  </outline>
</glyph>
<glyph name="va_zanb" format="2">
  <advance width="840"/>
  <unicode hex="11A2D"/>
  <anchor x="420" y="-86" name="bottom"/>
  <anchor x="664" y="0" name="bottom_right"/>
  <anchor x="420" y="778" name="top"/>
  <anchor x="80" y="678" name="topleft"/>
  <anchor x="760" y="678" name="topright"/>
  <outline>
    <contour>
      <point x="80" y="0" type="line"/>
      <point x="176" y="0" type="line"/>
      <point x="176" y="592" type="line"/>
      <point x="431" y="592" type="line"/>
      <point x="431" y="435" type="line"/>
      <point x="529" y="435" type="line"/>
      <point x="529" y="592" type="line"/>
      <point x="760" y="592" type="line"/>
      <point x="760" y="678" type="line"/>
      <point x="80" y="678" type="line"/>
    </contour>
    <contour>
      <point x="480" y="-3" type="curve" smooth="yes"/>
      <point x="604" y="-3"/>
      <point x="706" y="98"/>
      <point x="706" y="222" type="curve" smooth="yes"/>
      <point x="706" y="345"/>
      <point x="604" y="446"/>
      <point x="480" y="446" type="curve" smooth="yes"/>
      <point x="356" y="446"/>
      <point x="254" y="345"/>
      <point x="254" y="222" type="curve" smooth="yes"/>
      <point x="254" y="98"/>
      <point x="356" y="-3"/>
    </contour>
    <contour>
      <point x="480" y="83" type="curve" smooth="yes"/>
      <point x="408" y="83"/>
      <point x="350" y="141"/>
      <point x="350" y="222" type="curve" smooth="yes"/>
      <point x="350" y="303"/>
      <point x="408" y="361"/>
      <point x="480" y="361" type="curve" smooth="yes"/>
      <point x="552" y="361"/>
      <point x="610" y="303"/>
      <point x="610" y="222" type="curve" smooth="yes"/>
      <point x="610" y="141"/>
      <point x="552" y="83"/>
    </contour>
  </outline>
</glyph>
<glyph name="finalConsonantMark_zanb" format="2">
  <unicode hex="11A33"/>
  <anchor x="-283" y="-100" name="_bottom"/>
  <outline>
    <contour>
      <point x="-283" y="-299" type="line"/>
      <point x="-180" y="-195" type="line"/>
      <point x="-283" y="-92" type="line"/>
      <point x="-387" y="-195" type="line"/>
    </contour>
  </outline>
</glyph>
<glyph name="virama_zanb" format="2">
  <unicode hex="11A34"/>
  <anchor x="-444" y="-53" name="_bottom"/>
  <outline>
    <contour>
      <point x="-101" y="-317" type="curve"/>
      <point x="-94" y="-308" type="line"/>
      <point x="-179" y="-188"/>
      <point x="-347" y="-90"/>
      <point x="-519" y="-90" type="curve" smooth="yes"/>
      <point x="-646" y="-90"/>
      <point x="-739" y="-136"/>
      <point x="-739" y="-189" type="curve" smooth="yes"/>
      <point x="-739" y="-215"/>
      <point x="-716" y="-230"/>
      <point x="-688" y="-230" type="curve" smooth="yes"/>
      <point x="-649" y="-230"/>
      <point x="-600" y="-202"/>
      <point x="-488" y="-202" type="curve" smooth="yes"/>
      <point x="-355" y="-202"/>
      <point x="-231" y="-244"/>
    </contour>
  </outline>
</glyph>
<glyph name="candrabinduWithOrnament_zanb" format="2">
  <unicode hex="11A36"/>
  <anchor x="-411" y="768" name="_top"/>
  <outline>
    <contour>
      <point x="-413" y="771" type="curve" smooth="yes"/>
      <point x="-258" y="771"/>
      <point x="-122" y="873"/>
      <point x="-73" y="1016" type="curve"/>
      <point x="-79" y="1016" type="line"/>
      <point x="-193" y="899"/>
      <point x="-304" y="857"/>
      <point x="-413" y="857" type="curve" smooth="yes"/>
      <point x="-523" y="857"/>
      <point x="-632" y="898"/>
      <point x="-747" y="1016" type="curve"/>
      <point x="-753" y="1016" type="line"/>
      <point x="-704" y="873"/>
      <point x="-568" y="771"/>
    </contour>
    <contour>
      <point x="-411" y="954" type="curve" smooth="yes"/>
      <point x="-340" y="954"/>
      <point x="-282" y="1012"/>
      <point x="-282" y="1084" type="curve" smooth="yes"/>
      <point x="-282" y="1155"/>
      <point x="-340" y="1213"/>
      <point x="-411" y="1213" type="curve" smooth="yes"/>
      <point x="-483" y="1213"/>
      <point x="-541" y="1155"/>
      <point x="-541" y="1084" type="curve" smooth="yes"/>
      <point x="-541" y="1012"/>
      <point x="-483" y="954"/>
    </contour>
    <contour>
      <point x="-409" y="1014" type="curve" smooth="yes"/>
      <point x="-448" y="1014"/>
      <point x="-479" y="1045"/>
      <point x="-479" y="1084" type="curve" smooth="yes"/>
      <point x="-479" y="1122"/>
      <point x="-448" y="1153"/>
      <point x="-409" y="1153" type="curve" smooth="yes"/>
      <point x="-371" y="1153"/>
      <point x="-340" y="1122"/>
      <point x="-340" y="1084" type="curve" smooth="yes"/>
      <point x="-340" y="1045"/>
      <point x="-371" y="1014"/>
    </contour>
    <contour>
      <point x="-411" y="1274" type="curve" smooth="yes"/>
      <point x="-334" y="1274"/>
      <point x="-276" y="1322"/>
      <point x="-276" y="1395" type="curve" smooth="yes"/>
      <point x="-276" y="1458"/>
      <point x="-316" y="1485"/>
      <point x="-341" y="1500" type="curve" smooth="yes"/>
      <point x="-399" y="1535"/>
      <point x="-439" y="1595"/>
      <point x="-455" y="1621" type="curve"/>
      <point x="-460" y="1618" type="line"/>
      <point x="-459" y="1595"/>
      <point x="-455" y="1574"/>
      <point x="-450" y="1556" type="curve" smooth="yes"/>
      <point x="-437" y="1513"/>
      <point x="-420" y="1490"/>
      <point x="-401" y="1476" type="curve" smooth="yes"/>
      <point x="-366" y="1450"/>
      <point x="-336" y="1433"/>
      <point x="-336" y="1398" type="curve" smooth="yes"/>
      <point x="-336" y="1363"/>
      <point x="-367" y="1334"/>
      <point x="-411" y="1334" type="curve" smooth="yes"/>
      <point x="-461" y="1334"/>
      <point x="-488" y="1370"/>
      <point x="-488" y="1416" type="curve" smooth="yes"/>
      <point x="-488" y="1437"/>
      <point x="-482" y="1455"/>
      <point x="-474" y="1470" type="curve"/>
      <point x="-480" y="1477" type="line"/>
      <point x="-507" y="1460"/>
      <point x="-539" y="1430"/>
      <point x="-539" y="1385" type="curve" smooth="yes"/>
      <point x="-539" y="1334"/>
      <point x="-500" y="1274"/>
    </contour>
  </outline>
</glyph>
<glyph name="candraWithOrnament_zanb" format="2">
  <unicode hex="11A37"/>
  <anchor x="-411" y="768" name="_top"/>
  <outline>
    <contour>
      <point x="-413" y="771" type="curve" smooth="yes"/>
      <point x="-258" y="771"/>
      <point x="-122" y="873"/>
      <point x="-73" y="1016" type="curve"/>
      <point x="-79" y="1016" type="line"/>
      <point x="-193" y="899"/>
      <point x="-304" y="857"/>
      <point x="-413" y="857" type="curve" smooth="yes"/>
      <point x="-523" y="857"/>
      <point x="-632" y="898"/>
      <point x="-747" y="1016" type="curve"/>
      <point x="-753" y="1016" type="line"/>
      <point x="-704" y="873"/>
      <point x="-568" y="771"/>
    </contour>
    <contour>
      <point x="-411" y="954" type="curve" smooth="yes"/>
      <point x="-334" y="954"/>
      <point x="-276" y="1002"/>
      <point x="-276" y="1075" type="curve" smooth="yes"/>
      <point x="-276" y="1138"/>
      <point x="-316" y="1165"/>
      <point x="-341" y="1180" type="curve" smooth="yes"/>
      <point x="-399" y="1215"/>
      <point x="-439" y="1275"/>
      <point x="-455" y="1301" type="curve"/>
      <point x="-460" y="1298" type="line"/>
      <point x="-459" y="1275"/>
      <point x="-455" y="1254"/>
      <point x="-450" y="1236" type="curve" smooth="yes"/>
      <point x="-437" y="1193"/>
      <point x="-420" y="1170"/>
      <point x="-401" y="1156" type="curve" smooth="yes"/>
      <point x="-366" y="1130"/>
      <point x="-336" y="1113"/>
      <point x="-336" y="1078" type="curve" smooth="yes"/>
      <point x="-336" y="1043"/>
      <point x="-367" y="1014"/>
      <point x="-411" y="1014" type="curve" smooth="yes"/>
      <point x="-461" y="1014"/>
      <point x="-488" y="1050"/>
      <point x="-488" y="1096" type="curve" smooth="yes"/>
      <point x="-488" y="1117"/>
      <point x="-482" y="1135"/>
      <point x="-474" y="1150" type="curve"/>
      <point x="-480" y="1157" type="line"/>
      <point x="-507" y="1140"/>
      <point x="-539" y="1110"/>
      <point x="-539" y="1065" type="curve" smooth="yes"/>
      <point x="-539" y="1014"/>
      <point x="-500" y="954"/>
    </contour>
  </outline>
</glyph>
<glyph name="visarga_zanb" format="2">
  <advance width="403"/>
  <unicode hex="11A39"/>
  <outline>
    <contour>
      <point x="202" y="385" type="curve" smooth="yes"/>
      <point x="270" y="385"/>
      <point x="325" y="440"/>
      <point x="325" y="509" type="curve" smooth="yes"/>
      <point x="325" y="577"/>
      <point x="270" y="632"/>
      <point x="202" y="632" type="curve" smooth="yes"/>
      <point x="133" y="632"/>
      <point x="78" y="577"/>
      <point x="78" y="509" type="curve" smooth="yes"/>
      <point x="78" y="440"/>
      <point x="133" y="385"/>
    </contour>
    <contour>
      <point x="202" y="45" type="curve" smooth="yes"/>
      <point x="270" y="45"/>
      <point x="325" y="100"/>
      <point x="325" y="169" type="curve" smooth="yes"/>
      <point x="325" y="237"/>
      <point x="270" y="292"/>
      <point x="202" y="292" type="curve" smooth="yes"/>
      <point x="133" y="292"/>
      <point x="78" y="237"/>
      <point x="78" y="169" type="curve" smooth="yes"/>
      <point x="78" y="100"/>
      <point x="133" y="45"/>
    </contour>
    <contour>
      <point x="202" y="109" type="curve" smooth="yes"/>
      <point x="168" y="109"/>
      <point x="142" y="135"/>
      <point x="142" y="169" type="curve" smooth="yes"/>
      <point x="142" y="202"/>
      <point x="168" y="228"/>
      <point x="202" y="228" type="curve" smooth="yes"/>
      <point x="235" y="228"/>
      <point x="261" y="202"/>
      <point x="261" y="169" type="curve" smooth="yes"/>
      <point x="261" y="135"/>
      <point x="235" y="109"/>
    </contour>
    <contour>
      <point x="202" y="449" type="curve" smooth="yes"/>
      <point x="168" y="449"/>
      <point x="142" y="475"/>
      <point x="142" y="509" type="curve" smooth="yes"/>
      <point x="142" y="542"/>
      <point x="168" y="568"/>
      <point x="202" y="568" type="curve" smooth="yes"/>
      <point x="235" y="568"/>
      <point x="261" y="542"/>
      <point x="261" y="509" type="curve" smooth="yes"/>
      <point x="261" y="475"/>
      <point x="235" y="449"/>
    </contour>
  </outline>
</glyph>
<glyph name="initialRa_zanb" format="2">
  <advance width="840"/>
  <unicode hex="11A3A"/>
  <guideline x="-420" y="385" angle="180"/>
  <anchor x="420" y="435" name="bottom"/>
  <anchor x="420" y="778" name="top"/>
  <anchor x="80" y="678" name="topleft"/>
  <anchor x="760" y="678" name="topright"/>
  <outline>
    <contour>
      <point x="372" y="375" type="line"/>
      <point x="468" y="375" type="line"/>
      <point x="468" y="592" type="line"/>
      <point x="760" y="592" type="line"/>
      <point x="760" y="678" type="line"/>
      <point x="80" y="678" type="line"/>
      <point x="80" y="592" type="line"/>
      <point x="372" y="592" type="line"/>
    </contour>
  </outline>
</glyph>
<glyph name="finalYa_zanb" format="2">
  <unicode hex="11A3B"/>
  <guideline x="427" y="-56" angle="0"/>
  <guideline x="-419" y="-56" angle="0"/>
  <anchor x="-420" y="-80" name="_bottom"/>
  <outline>
    <contour>
      <point x="-593" y="-291" type="curve" smooth="yes"/>
      <point x="-503" y="-291"/>
      <point x="-437" y="-216"/>
      <point x="-422" y="-148" type="curve"/>
      <point x="-416" y="-148" type="line"/>
      <point x="-401" y="-216"/>
      <point x="-337" y="-291"/>
      <point x="-247" y="-291" type="curve" smooth="yes"/>
      <point x="-125" y="-291"/>
      <point x="-77" y="-154"/>
      <point x="-80" y="-45" type="curve"/>
      <point x="-95" y="-45" type="line"/>
      <point x="-116" y="-112"/>
      <point x="-164" y="-189"/>
      <point x="-243" y="-189" type="curve" smooth="yes"/>
      <point x="-327" y="-189"/>
      <point x="-387" y="-100"/>
      <point x="-411" y="-56" type="curve"/>
      <point x="-428" y="-56" type="line"/>
      <point x="-448" y="-100"/>
      <point x="-513" y="-189"/>
      <point x="-597" y="-189" type="curve" smooth="yes"/>
      <point x="-676" y="-189"/>
      <point x="-723" y="-112"/>
      <point x="-744" y="-45" type="curve"/>
      <point x="-760" y="-45" type="line"/>
      <point x="-763" y="-154"/>
      <point x="-715" y="-291"/>
    </contour>
  </outline>
</glyph>
<glyph name="finalRa_zanb" format="2">
  <unicode hex="11A3C"/>
  <anchor x="-420" y="-100" name="_bottom"/>
  <outline>
    <contour>
      <point x="-760" y="-259" type="line"/>
      <point x="-649" y="-234"/>
      <point x="-538" y="-221"/>
      <point x="-427" y="-220" type="curve" smooth="yes"/>
      <point x="-312" y="-219"/>
      <point x="-196" y="-232"/>
      <point x="-80" y="-259" type="curve"/>
      <point x="-80" y="0" type="line"/>
      <point x="-176" y="0" type="line"/>
      <point x="-176" y="-165" type="line"/>
      <point x="-178" y="-166" type="line"/>
      <point x="-269" y="-151"/>
      <point x="-361" y="-144"/>
      <point x="-453" y="-145" type="curve" smooth="yes"/>
      <point x="-555" y="-146"/>
      <point x="-657" y="-158"/>
      <point x="-760" y="-183" type="curve"/>
    </contour>
  </outline>
</glyph>
<glyph name="finalLa_zanb" format="2">
  <unicode hex="11A3D"/>
  <anchor x="-420" y="-100" name="_bottom"/>
  <outline>
    <contour>
      <point x="-760" y="-313" type="line"/>
      <point x="-663" y="-313" type="line"/>
      <point x="-663" y="-304" type="line" smooth="yes"/>
      <point x="-663" y="-241"/>
      <point x="-612" y="-171"/>
      <point x="-513" y="-171" type="curve" smooth="yes"/>
      <point x="-425" y="-171"/>
      <point x="-394" y="-226"/>
      <point x="-279" y="-226" type="curve" smooth="yes"/>
      <point x="-181" y="-226"/>
      <point x="-80" y="-185"/>
      <point x="-80" y="-27" type="curve" smooth="yes"/>
      <point x="-80" y="1" type="line"/>
      <point x="-177" y="1" type="line"/>
      <point x="-177" y="-29" type="line" smooth="yes"/>
      <point x="-177" y="-91"/>
      <point x="-210" y="-146"/>
      <point x="-283" y="-146" type="curve" smooth="yes"/>
      <point x="-359" y="-146"/>
      <point x="-405" y="-92"/>
      <point x="-516" y="-92" type="curve" smooth="yes"/>
      <point x="-675" y="-92"/>
      <point x="-760" y="-206"/>
      <point x="-760" y="-307" type="curve" smooth="yes"/>
    </contour>
  </outline>
</glyph>
<glyph name="finalVa_zanb" format="2">
  <unicode hex="11A3E"/>
  <guideline x="-303" y="-123" angle="18.4349"/>
  <guideline x="-315" y="-165" angle="341.56510000000003"/>
  <anchor x="-177" y="3" name="_bottom_right"/>
  <outline>
    <contour>
      <point x="-80" y="-365" type="line"/>
      <point x="-80" y="-7" type="line"/>
      <point x="-616" y="-186" type="line"/>
    </contour>
    <contour>
      <point x="-176" y="-251" type="line"/>
      <point x="-372" y="-186" type="line"/>
      <point x="-176" y="-121" type="line"/>
    </contour>
  </outline>
</glyph>
<glyph name="initialHeadMark_zanb" format="2">
  <advance width="840"/>
  <unicode hex="11A3F"/>
  <anchor x="420" y="-86" name="bottom"/>
  <anchor x="664" y="0" name="bottom_right"/>
  <anchor x="420" y="778" name="top"/>
  <anchor x="80" y="678" name="topleft"/>
  <anchor x="760" y="678" name="topright"/>
  <outline>
    <contour>
      <point x="80" y="0" type="line"/>
      <point x="760" y="0" type="line"/>
      <point x="760" y="678" type="line"/>
      <point x="354" y="678" type="line"/>
      <point x="354" y="320" type="line"/>
      <point x="450" y="320" type="line"/>
      <point x="450" y="592" type="line"/>
      <point x="664" y="592" type="line"/>
      <point x="664" y="86" type="line"/>
      <point x="176" y="86" type="line"/>
      <point x="176" y="678" type="line"/>
      <point x="80" y="678" type="line"/>
    </contour>
  </outline>
</glyph>
<glyph name="tsheg_zanb" format="2">
  <advance width="257"/>
  <unicode hex="11A41"/>
  <outline>
    <contour>
      <point x="80" y="587" type="line"/>
      <point x="177" y="587" type="line"/>
      <point x="177" y="737" type="line"/>
      <point x="80" y="737" type="line"/>
    </contour>
  </outline>
</glyph>
<glyph name="shad_zanb" format="2">
  <advance width="257"/>
  <unicode hex="11A42"/>
  <outline>
    <contour>
      <point x="80" y="0" type="line"/>
      <point x="177" y="0" type="line"/>
      <point x="177" y="678" type="line"/>
      <point x="80" y="678" type="line"/>
    </contour>
  </outline>
</glyph>
<glyph name="longTsheg_zanb" format="2">
  <advance width="840"/>
  <unicode hex="11A44"/>
  <outline>
    <contour>
      <point x="80" y="504" type="line"/>
      <point x="760" y="504" type="line"/>
      <point x="760" y="800" type="line"/>
      <point x="80" y="800" type="line"/>
    </contour>
    <contour>
      <point x="80" y="-50" type="line"/>
      <point x="760" y="-50" type="line"/>
      <point x="760" y="246" type="line"/>
      <point x="80" y="246" type="line"/>
    </contour>
    <contour>
      <point x="176" y="36" type="line"/>
      <point x="176" y="160" type="line"/>
      <point x="664" y="160" type="line"/>
      <point x="664" y="36" type="line"/>
    </contour>
    <contour>
      <point x="80" y="332" type="line"/>
      <point x="760" y="332" type="line"/>
      <point x="760" y="418" type="line"/>
      <point x="80" y="418" type="line"/>
    </contour>
    <contour>
      <point x="176" y="590" type="line"/>
      <point x="176" y="714" type="line"/>
      <point x="664" y="714" type="line"/>
      <point x="664" y="590" type="line"/>
    </contour>
  </outline>
</glyph>
<glyph name="initialDoubleHeadMark_zanb" format="2">
  <advance width="840"/>
  <unicode hex="11A45"/>
  <outline>
    <contour>
      <point x="80" y="100" type="line"/>
      <point x="760" y="100" type="line"/>
      <point x="760" y="678" type="line"/>
      <point x="354" y="678" type="line"/>
      <point x="354" y="320" type="line"/>
      <point x="450" y="320" type="line"/>
      <point x="450" y="592" type="line"/>
      <point x="664" y="592" type="line"/>
      <point x="664" y="186" type="line"/>
      <point x="176" y="186" type="line"/>
      <point x="176" y="678" type="line"/>
      <point x="80" y="678" type="line"/>
    </contour>
    <contour>
      <point x="80" y="-86" type="line"/>
      <point x="760" y="-86" type="line"/>
      <point x="760" y="0" type="line"/>
      <point x="80" y="0" type="line"/>
    </contour>
  </outline>
</glyph>
<glyph name="subjoiner_zanb" format="2">
  <unicode hex="11A47"/>
  <anchor x="-420" y="-123" name="_bottom"/>
  <outline>
    <contour>
      <point x="-538" y="-271" type="line"/>
      <point x="-301" y="-271" type="line"/>
      <point x="-301" y="-211" type="line"/>
      <point x="-538" y="-211" type="line"/>
    </contour>
    <contour>
      <point x="-450" y="-360" type="line"/>
      <point x="-390" y="-360" type="line"/>
      <point x="-390" y="-123" type="line"/>
      <point x="-450" y="-123" type="line"/>
    </contour>
  </outline>
</glyph>
<glyph name="a_zanb.sub" format="2">
	<advance width="0"/>
	<anchor x="-420" y="-123" name="_bottom"/>
	<outline>
		<contour>
			<point x="-1056" y="-801" type="line"/>
			<point x="-666" y="-801" type="line"/>
			<point x="-666" y="-209" type="line"/>
			<point x="-470" y="-209" type="line"/>
			<point x="-470" y="-801" type="line"/>
			<point x="-80" y="-801" type="line"/>
			<point x="-80" y="-123" type="line"/>
			<point x="-176" y="-123" type="line"/>
			<point x="-176" y="-715" type="line"/>
			<point x="-374" y="-715" type="line"/>
			<point x="-374" y="-123" type="line"/>
			<point x="-762" y="-123" type="line"/>
			<point x="-762" y="-715" type="line"/>
			<point x="-960" y="-715" type="line"/>
			<point x="-960" y="-123" type="line"/>
			<point x="-1056" y="-123" type="line"/>
		</contour>
	</outline>
</glyph>
<glyph name="bha_zanb.sub" format="2">
	<advance width="0"/>
	<anchor x="-420" y="-123" name="_bottom"/>
	<anchor x="-420" y="-887" name="bottom"/>
	<outline>
		<contour>
			<point x="-760" y="-801" type="line"/>
			<point x="-80" y="-801" type="line"/>
			<point x="-80" y="-123" type="line"/>
			<point x="-760" y="-123" type="line"/>
			<point x="-760" y="-133" type="line"/>
			<point x="-652" y="-248"/>
			<point x="-589" y="-344"/>
			<point x="-589" y="-447" type="curve" smooth="yes"/>
			<point x="-589" y="-559"/>
			<point x="-644" y="-665"/>
			<point x="-760" y="-791" type="curve"/>
		</contour>
		<contour>
			<point x="-588" y="-715" type="line"/>
			<point x="-588" y="-713" type="line"/>
			<point x="-527" y="-644"/>
			<point x="-479" y="-557"/>
			<point x="-479" y="-448" type="curve" smooth="yes"/>
			<point x="-479" y="-340"/>
			<point x="-557" y="-250"/>
			<point x="-589" y="-215" type="curve"/>
			<point x="-589" y="-212" type="line"/>
			<point x="-176" y="-209" type="line"/>
			<point x="-176" y="-715" type="line"/>
		</contour>
	</outline>
</glyph>
<glyph name="dza_zanb.flat" format="2">
  <advance width="927"/>
  <anchor x="420" y="-86" name="bottom"/>
  <anchor x="681" y="0" name="bottom_right"/>
  <anchor x="420" y="778" name="top"/>
  <anchor x="80" y="678" name="topleft"/>
  <anchor x="760" y="678" name="topright"/>
  <outline>
    <contour>
      <point x="80" y="0" type="line"/>
      <point x="760" y="0" type="line"/>
      <point x="760" y="86" type="line"/>
      <point x="176" y="86" type="line"/>
      <point x="176" y="296" type="line"/>
      <point x="760" y="296" type="line"/>
      <point x="760" y="382" type="line"/>
      <point x="176" y="382" type="line"/>
      <point x="176" y="592" type="line"/>
      <point x="760" y="592" type="line"/>
      <point x="760" y="667" type="line"/>
      <point x="786" y="683"/>
      <point x="795" y="690"/>
      <point x="822" y="708" type="curve"/>
      <point x="869" y="670"/>
      <point x="892" y="655"/>
      <point x="943" y="633" type="curve"/>
      <point x="975" y="652"/>
      <point x="1000" y="682"/>
      <point x="1016" y="730" type="curve"/>
      <point x="989" y="739"/>
      <point x="976" y="745"/>
      <point x="950" y="759" type="curve" smooth="yes"/>
      <point x="925" y="772"/>
      <point x="903" y="788"/>
      <point x="878" y="808" type="curve"/>
      <point x="826" y="767"/>
      <point x="772" y="725"/>
      <point x="687" y="678" type="curve"/>
      <point x="80" y="678" type="line"/>
    </contour>
  </outline>
</glyph>
<glyph name="dza_zanb.short" format="2">
  <anchor x="-420" y="-23" name="_bottom"/>
  <anchor x="-420" y="-536" name="bottom"/>
  <anchor x="-159" y="-450" name="bottom_right"/>
  <outline>
    <contour>
      <point x="-760" y="-450" type="line"/>
      <point x="-80" y="-450" type="line"/>
      <point x="-80" y="-364" type="line"/>
      <point x="-664" y="-364" type="line"/>
      <point x="-664" y="-278" type="line"/>
      <point x="-80" y="-278" type="line"/>
      <point x="-80" y="-192" type="line"/>
      <point x="-664" y="-192" type="line"/>
      <point x="-664" y="-109" type="line"/>
      <point x="-107" y="-109" type="line"/>
      <point x="-107" y="-36" type="line"/>
      <point x="-79" y="-18"/>
      <point x="-70" y="-12"/>
      <point x="-42" y="7" type="curve"/>
      <point x="5" y="-31"/>
      <point x="28" y="-46"/>
      <point x="79" y="-68" type="curve"/>
      <point x="111" y="-49"/>
      <point x="136" y="-19"/>
      <point x="152" y="29" type="curve"/>
      <point x="125" y="38"/>
      <point x="112" y="44"/>
      <point x="86" y="58" type="curve" smooth="yes"/>
      <point x="61" y="71"/>
      <point x="39" y="87"/>
      <point x="14" y="107" type="curve"/>
      <point x="-38" y="66"/>
      <point x="-92" y="24"/>
      <point x="-177" y="-23" type="curve"/>
      <point x="-760" y="-23" type="line"/>
    </contour>
  </outline>
</glyph>
<glyph name="dza_zanb.sub" format="2">
  <anchor x="-420" y="-123" name="_bottom"/>
  <anchor x="-420" y="-887" name="bottom"/>
  <anchor x="-159" y="-801" name="bottom_right"/>
  <outline>
    <contour>
      <point x="-760" y="-801" type="line"/>
      <point x="-80" y="-801" type="line"/>
      <point x="-80" y="-715" type="line"/>
      <point x="-664" y="-715" type="line"/>
      <point x="-664" y="-505" type="line"/>
      <point x="-80" y="-505" type="line"/>
      <point x="-80" y="-419" type="line"/>
      <point x="-664" y="-419" type="line"/>
      <point x="-664" y="-209" type="line"/>
      <point x="-107" y="-209" type="line"/>
      <point x="-107" y="-123" type="line"/>
      <point x="-760" y="-123" type="line"/>
    </contour>
    <contour>
      <point x="79" y="-168" type="curve"/>
      <point x="111" y="-149"/>
      <point x="136" y="-119"/>
      <point x="152" y="-71" type="curve"/>
      <point x="125" y="-62"/>
      <point x="112" y="-56"/>
      <point x="86" y="-42" type="curve" smooth="yes"/>
      <point x="61" y="-29"/>
      <point x="39" y="-13"/>
      <point x="14" y="7" type="curve"/>
      <point x="-43" y="-38"/>
      <point x="-102" y="-84"/>
      <point x="-201" y="-136" type="curve"/>
      <point x="-107" y="-136" type="line"/>
      <point x="-79" y="-118"/>
      <point x="-70" y="-112"/>
      <point x="-42" y="-93" type="curve"/>
      <point x="5" y="-131"/>
      <point x="28" y="-146"/>
    </contour>
  </outline>
</glyph>
<glyph name="dzha_zanb.flat" format="2">
  <advance width="927"/>
  <anchor x="420" y="-86" name="bottom"/>
  <anchor x="667" y="0" name="bottom_right"/>
  <anchor x="420" y="778" name="top"/>
  <anchor x="80" y="678" name="topleft"/>
  <anchor x="760" y="678" name="topright"/>
  <outline>
    <contour>
      <point x="80" y="0" type="line"/>
      <point x="760" y="0" type="line"/>
      <point x="760" y="86" type="line"/>
      <point x="176" y="86" type="line"/>
      <point x="176" y="296" type="line"/>
      <point x="426" y="296" type="line"/>
      <point x="444" y="220"/>
      <point x="513" y="163"/>
      <point x="595" y="163" type="curve" smooth="yes"/>
      <point x="642" y="163"/>
      <point x="684" y="182"/>
      <point x="715" y="212" type="curve"/>
      <point x="648" y="272" type="line"/>
      <point x="634" y="260"/>
      <point x="615" y="253"/>
      <point x="595" y="253" type="curve" smooth="yes"/>
      <point x="548" y="253"/>
      <point x="511" y="290"/>
      <point x="511" y="337" type="curve" smooth="yes"/>
      <point x="511" y="383"/>
      <point x="548" y="420"/>
      <point x="595" y="420" type="curve" smooth="yes"/>
      <point x="620" y="420"/>
      <point x="642" y="409"/>
      <point x="657" y="392" type="curve"/>
      <point x="725" y="450" type="line"/>
      <point x="693" y="487"/>
      <point x="647" y="510"/>
      <point x="595" y="510" type="curve" smooth="yes"/>
      <point x="515" y="510"/>
      <point x="447" y="455"/>
      <point x="427" y="382" type="curve"/>
      <point x="176" y="382" type="line"/>
      <point x="176" y="592" type="line"/>
      <point x="760" y="592" type="line"/>
      <point x="760" y="667" type="line"/>
      <point x="786" y="683"/>
      <point x="795" y="690"/>
      <point x="822" y="708" type="curve"/>
      <point x="869" y="670"/>
      <point x="892" y="655"/>
      <point x="943" y="633" type="curve"/>
      <point x="975" y="652"/>
      <point x="1000" y="682"/>
      <point x="1016" y="730" type="curve"/>
      <point x="989" y="739"/>
      <point x="976" y="745"/>
      <point x="950" y="759" type="curve" smooth="yes"/>
      <point x="925" y="772"/>
      <point x="903" y="788"/>
      <point x="878" y="808" type="curve"/>
      <point x="826" y="767"/>
      <point x="772" y="725"/>
      <point x="687" y="678" type="curve"/>
      <point x="80" y="678" type="line"/>
    </contour>
  </outline>
</glyph>
<glyph name="e_zanb.ai" format="2">
  <guideline x="422" y="776" angle="90"/>
  <anchor x="-715" y="811" name="_top"/>
  <anchor x="-715" y="965" name="top"/>
  <outline>
    <contour>
      <point x="-550" y="641" type="line"/>
      <point x="-488" y="641" type="line"/>
      <point x="-488" y="944" type="line"/>
      <point x="-1055" y="944" type="line"/>
      <point x="-1055" y="858" type="line"/>
      <point x="-550" y="858" type="line"/>
    </contour>
  </outline>
</glyph>
<glyph name="e_zanb.wide.ai" format="2">
  <anchor x="-478" y="813" name="_top"/>
  <anchor x="-478" y="965" name="top"/>
  <outline>
    <contour>
      <point x="-142" y="641" type="line"/>
      <point x="-80" y="641" type="line"/>
      <point x="-80" y="944" type="line"/>
      <point x="-967" y="944" type="line"/>
      <point x="-967" y="858" type="line"/>
      <point x="-142" y="858" type="line"/>
    </contour>
  </outline>
</glyph>
<glyph name="gha_zanb.sub" format="2">
	<advance width="0"/>
	<anchor x="-420" y="-123" name="_bottom"/>
	<anchor x="-420" y="-887" name="bottom"/>
	<outline>
		<contour>
			<point x="-760" y="-801" type="line"/>
			<point x="-372" y="-801" type="line"/>
			<point x="-372" y="-209" type="line"/>
			<point x="-176" y="-209" type="line"/>
			<point x="-176" y="-801" type="line"/>
			<point x="-80" y="-801" type="line"/>
			<point x="-80" y="-123" type="line"/>
			<point x="-760" y="-123" type="line"/>
			<point x="-760" y="-209" type="line"/>
			<point x="-468" y="-209" type="line"/>
			<point x="-468" y="-415" type="line"/>
			<point x="-760" y="-415" type="line"/>
		</contour>
		<contour>
			<point x="-664" y="-715" type="line"/>
			<point x="-664" y="-501" type="line"/>
			<point x="-468" y="-501" type="line"/>
			<point x="-468" y="-715" type="line"/>
		</contour>
	</outline>
</glyph>
<glyph name="i_zanb.wide" format="2">
  <guideline x="838" y="732" angle="0"/>
  <guideline x="432" y="752" angle="180"/>
  <anchor x="-433" y="798" name="_top"/>
  <anchor x="-433" y="1005" name="top"/>
  <outline>
    <contour>
      <point x="47" y="702" type="curve"/>
      <point x="56" y="702" type="line"/>
      <point x="-37" y="805"/>
      <point x="-226" y="917"/>
      <point x="-472" y="917" type="curve" smooth="yes"/>
      <point x="-690" y="917"/>
      <point x="-829" y="845"/>
      <point x="-912" y="752" type="curve"/>
      <point x="-903" y="752" type="line"/>
      <point x="-795" y="806"/>
      <point x="-671" y="833"/>
      <point x="-472" y="831" type="curve" smooth="yes"/>
      <point x="-265" y="829"/>
      <point x="-61" y="766"/>
    </contour>
  </outline>
</glyph>
<glyph name="la_zanb.head" format="2">
  <advance width="840"/>
  <anchor x="420" y="427" name="bottom"/>
  <anchor x="664" y="433" name="bottom_right"/>
  <anchor x="420" y="778" name="top"/>
  <anchor x="80" y="678" name="topleft"/>
  <outline>
    <contour>
      <point x="372" y="341" type="line"/>
      <point x="760" y="341" type="line"/>
      <point x="760" y="678" type="line"/>
      <point x="664" y="678" type="line"/>
      <point x="664" y="427" type="line"/>
      <point x="468" y="427" type="line"/>
      <point x="468" y="678" type="line"/>
      <point x="80" y="678" type="line"/>
      <point x="80" y="504" type="line"/>
      <point x="176" y="504" type="line"/>
      <point x="176" y="592" type="line"/>
      <point x="372" y="592" type="line"/>
    </contour>
  </outline>
</glyph>
<glyph name="nga_zanb.short" format="2">
  <anchor x="-420" y="-23" name="_bottom"/>
  <anchor x="-420" y="-536" name="bottom"/>
  <anchor x="-176" y="-450" name="bottom_right"/>
  <outline>
    <contour>
      <point x="-760" y="-450" type="line"/>
      <point x="-80" y="-450" type="line"/>
      <point x="-80" y="-364" type="line"/>
      <point x="-664" y="-364" type="line"/>
      <point x="-664" y="-279" type="line"/>
      <point x="-81" y="-279" type="line"/>
      <point x="-81" y="-23" type="line"/>
      <point x="-760" y="-23" type="line"/>
      <point x="-760" y="-109" type="line"/>
      <point x="-177" y="-109" type="line"/>
      <point x="-177" y="-193" type="line"/>
      <point x="-760" y="-193" type="line"/>
    </contour>
  </outline>
</glyph>
<glyph name="nna_zanb.sub" format="2">
	<advance width="0"/>
	<anchor x="-420" y="-123" name="_bottom"/>
	<anchor x="-420" y="-887" name="bottom"/>
	<outline>
		<contour>
			<point x="-176" y="-821" type="line"/>
			<point x="-80" y="-778" type="line"/>
			<point x="-80" y="-123" type="line"/>
			<point x="-760" y="-123" type="line"/>
			<point x="-760" y="-209" type="line"/>
			<point x="-176" y="-209" type="line"/>
			<point x="-176" y="-239" type="line"/>
			<point x="-750" y="-532" type="line"/>
		</contour>
		<contour>
			<point x="-176" y="-715" type="line"/>
			<point x="-555" y="-525" type="line"/>
			<point x="-176" y="-332" type="line"/>
		</contour>
	</outline>
</glyph>
<glyph name="o_zanb.ai" format="2">
  <guideline x="422" y="776" angle="90"/>
  <anchor x="-715" y="811" name="_top"/>
  <anchor x="-715" y="994" name="top"/>
  <outline>
    <contour>
      <point x="-771" y="711" type="line"/>
      <point x="-684" y="858" type="line"/>
      <point x="-488" y="858" type="line"/>
      <point x="-488" y="949" type="line"/>
      <point x="-502" y="949" type="line"/>
      <point x="-523" y="944" type="line"/>
      <point x="-702" y="944" type="line"/>
      <point x="-769" y="829" type="line"/>
      <point x="-773" y="829" type="line"/>
      <point x="-841" y="944" type="line"/>
      <point x="-1020" y="944" type="line"/>
      <point x="-1041" y="949" type="line"/>
      <point x="-1055" y="949" type="line"/>
      <point x="-1055" y="858" type="line"/>
      <point x="-859" y="858" type="line"/>
    </contour>
  </outline>
</glyph>
<glyph name="o_zanb.au" format="2">
  <guideline x="422" y="776" angle="90"/>
  <anchor x="-483" y="811" name="_top"/>
  <anchor x="-483" y="994" name="top"/>
  <outline>
    <contour>
      <point x="-423" y="711" type="line"/>
      <point x="-337" y="858" type="line"/>
      <point x="-143" y="858" type="line"/>
      <point x="-143" y="949" type="line"/>
      <point x="-157" y="949" type="line"/>
      <point x="-178" y="944" type="line"/>
      <point x="-355" y="944" type="line"/>
      <point x="-421" y="829" type="line"/>
      <point x="-425" y="829" type="line"/>
      <point x="-492" y="944" type="line"/>
      <point x="-669" y="944" type="line"/>
      <point x="-690" y="949" type="line"/>
      <point x="-704" y="949" type="line"/>
      <point x="-704" y="858" type="line"/>
      <point x="-510" y="858" type="line"/>
    </contour>
  </outline>
</glyph>
<glyph name="o_zanb.wide.ai" format="2">
  <guideline x="422" y="776" angle="90"/>
  <anchor x="-569" y="811" name="_top"/>
  <anchor x="-569" y="994" name="top"/>
  <outline>
    <contour>
      <point x="-629" y="711" type="line"/>
      <point x="-524" y="858" type="line"/>
      <point x="-201" y="858" type="line"/>
      <point x="-201" y="949" type="line"/>
      <point x="-218" y="949" type="line"/>
      <point x="-244" y="944" type="line"/>
      <point x="-546" y="944" type="line"/>
      <point x="-626" y="829" type="line"/>
      <point x="-632" y="829" type="line"/>
      <point x="-713" y="944" type="line"/>
      <point x="-1015" y="944" type="line"/>
      <point x="-1041" y="949" type="line"/>
      <point x="-1058" y="949" type="line"/>
      <point x="-1058" y="858" type="line"/>
      <point x="-735" y="858" type="line"/>
    </contour>
  </outline>
</glyph>
<glyph name="o_zanb.wide.au" format="2">
  <guideline x="422" y="776" angle="90"/>
  <anchor x="-569" y="811" name="_top"/>
  <anchor x="-569" y="994" name="top"/>
  <outline>
    <contour>
      <point x="-509" y="711" type="line"/>
      <point x="-404" y="858" type="line"/>
      <point x="-81" y="858" type="line"/>
      <point x="-81" y="949" type="line"/>
      <point x="-98" y="949" type="line"/>
      <point x="-124" y="944" type="line"/>
      <point x="-426" y="944" type="line"/>
      <point x="-506" y="829" type="line"/>
      <point x="-512" y="829" type="line"/>
      <point x="-593" y="944" type="line"/>
      <point x="-895" y="944" type="line"/>
      <point x="-921" y="949" type="line"/>
      <point x="-938" y="949" type="line"/>
      <point x="-938" y="858" type="line"/>
      <point x="-615" y="858" type="line"/>
    </contour>
  </outline>
</glyph>
<glyph name="o_zanb.wide" format="2">
  <guideline x="422" y="776" angle="90"/>
  <anchor x="-569" y="811" name="_top"/>
  <anchor x="-569" y="994" name="top"/>
  <outline>
    <contour>
      <point x="-569" y="711" type="line"/>
      <point x="-464" y="858" type="line"/>
      <point x="-81" y="858" type="line"/>
      <point x="-81" y="949" type="line"/>
      <point x="-98" y="949" type="line"/>
      <point x="-124" y="944" type="line"/>
      <point x="-486" y="944" type="line"/>
      <point x="-566" y="829" type="line"/>
      <point x="-572" y="829" type="line"/>
      <point x="-653" y="944" type="line"/>
      <point x="-1015" y="944" type="line"/>
      <point x="-1041" y="949" type="line"/>
      <point x="-1058" y="949" type="line"/>
      <point x="-1058" y="858" type="line"/>
      <point x="-675" y="858" type="line"/>
    </contour>
  </outline>
</glyph>
<glyph name="oe_zanb.wide" format="2">
  <anchor x="-568" y="808" name="_top"/>
  <anchor x="-569" y="965" name="top"/>
  <outline>
    <contour>
      <point x="-593" y="641" type="line"/>
      <point x="-543" y="641" type="line"/>
      <point x="-543" y="858" type="line"/>
      <point x="-80" y="858" type="line"/>
      <point x="-80" y="944" type="line"/>
      <point x="-1056" y="944" type="line"/>
      <point x="-1056" y="858" type="line"/>
      <point x="-593" y="858" type="line"/>
    </contour>
  </outline>
</glyph>
<glyph name="reversed_i_zanb.wide" format="2">
  <guideline x="838" y="732" angle="0"/>
  <guideline x="432" y="752" angle="180"/>
  <anchor x="-383" y="798" name="_top"/>
  <anchor x="-383" y="1005" name="top"/>
  <outline>
    <contour>
      <point x="-866" y="702" type="curve"/>
      <point x="-857" y="702" type="line"/>
      <point x="-749" y="766"/>
      <point x="-545" y="829"/>
      <point x="-338" y="831" type="curve" smooth="yes"/>
      <point x="-139" y="833"/>
      <point x="-15" y="806"/>
      <point x="93" y="752" type="curve"/>
      <point x="102" y="752" type="line"/>
      <point x="19" y="845"/>
      <point x="-120" y="917"/>
      <point x="-338" y="917" type="curve" smooth="yes"/>
      <point x="-584" y="917"/>
      <point x="-773" y="805"/>
    </contour>
  </outline>
</glyph>
<glyph name="sa_zanb.head" format="2">
  <advance width="840"/>
  <guideline x="380" y="475" angle="154.669"/>
  <anchor x="420" y="427" name="bottom"/>
  <anchor x="664" y="433" name="bottom_right"/>
  <anchor x="420" y="778" name="top"/>
  <anchor x="80" y="678" name="topleft"/>
  <outline>
    <contour>
      <point x="664" y="341" type="line"/>
      <point x="760" y="341" type="line"/>
      <point x="760" y="678" type="line"/>
      <point x="664" y="678" type="line"/>
      <point x="664" y="531" type="line"/>
      <point x="176" y="678" type="line"/>
      <point x="80" y="678" type="line"/>
      <point x="80" y="500" type="line"/>
      <point x="176" y="500" type="line"/>
      <point x="176" y="592" type="line"/>
      <point x="664" y="445" type="line"/>
    </contour>
  </outline>
</glyph>
<glyph name="tsa_zanb.flat" format="2">
  <advance width="927"/>
  <anchor x="420" y="-86" name="bottom"/>
  <anchor x="664" y="0" name="bottom_right"/>
  <anchor x="420" y="778" name="top"/>
  <anchor x="80" y="678" name="topleft"/>
  <anchor x="760" y="678" name="topright"/>
  <outline>
    <contour>
      <point x="80" y="0" type="line"/>
      <point x="760" y="0" type="line"/>
      <point x="760" y="678" type="line"/>
      <point x="80" y="678" type="line"/>
      <point x="80" y="592" type="line"/>
      <point x="372" y="592" type="line"/>
      <point x="372" y="86" type="line"/>
      <point x="80" y="86" type="line"/>
    </contour>
    <contour>
      <point x="468" y="86" type="line"/>
      <point x="468" y="592" type="line"/>
      <point x="664" y="592" type="line"/>
      <point x="664" y="86" type="line"/>
    </contour>
    <contour>
      <point x="943" y="633" type="curve"/>
      <point x="975" y="652"/>
      <point x="1000" y="682"/>
      <point x="1016" y="730" type="curve"/>
      <point x="989" y="739"/>
      <point x="976" y="745"/>
      <point x="950" y="759" type="curve" smooth="yes"/>
      <point x="925" y="772"/>
      <point x="903" y="788"/>
      <point x="878" y="808" type="curve"/>
      <point x="821" y="763"/>
      <point x="762" y="717"/>
      <point x="663" y="665" type="curve"/>
      <point x="757" y="665" type="line"/>
      <point x="785" y="683"/>
      <point x="794" y="689"/>
      <point x="822" y="708" type="curve"/>
      <point x="869" y="670"/>
      <point x="892" y="655"/>
    </contour>
  </outline>
</glyph>
<glyph name="tsa_zanb.short" format="2">
  <guideline x="-424" y="-23" angle="180"/>
  <anchor x="-424" y="-23" name="_bottom"/>
  <anchor x="-420" y="-536" name="bottom"/>
  <anchor x="-176" y="-450" name="bottom_right"/>
  <outline>
    <contour>
      <point x="-760" y="-450" type="line"/>
      <point x="-80" y="-450" type="line"/>
      <point x="-80" y="-26" type="line"/>
      <point x="-63" y="-15"/>
      <point x="-54" y="-8"/>
      <point x="-35" y="7" type="curve"/>
      <point x="12" y="-31"/>
      <point x="35" y="-46"/>
      <point x="86" y="-68" type="curve"/>
      <point x="118" y="-49"/>
      <point x="143" y="-19"/>
      <point x="159" y="29" type="curve"/>
      <point x="132" y="38"/>
      <point x="119" y="44"/>
      <point x="93" y="58" type="curve" smooth="yes"/>
      <point x="68" y="71"/>
      <point x="46" y="87"/>
      <point x="21" y="107" type="curve"/>
      <point x="-31" y="66"/>
      <point x="-85" y="24"/>
      <point x="-170" y="-23" type="curve"/>
      <point x="-760" y="-23" type="line"/>
      <point x="-760" y="-109" type="line"/>
      <point x="-468" y="-109" type="line"/>
      <point x="-468" y="-364" type="line"/>
      <point x="-760" y="-364" type="line"/>
    </contour>
    <contour>
      <point x="-372" y="-364" type="line"/>
      <point x="-372" y="-109" type="line"/>
      <point x="-176" y="-109" type="line"/>
      <point x="-176" y="-364" type="line"/>
    </contour>
  </outline>
</glyph>
<glyph name="tsha_zanb.sub" format="2">
  <anchor x="-420" y="-123" name="_bottom"/>
  <anchor x="-420" y="-887" name="bottom"/>
  <anchor x="-176" y="-801" name="bottom_right"/>
  <outline>
    <contour>
      <point x="-760" y="-801" type="line"/>
      <point x="-80" y="-801" type="line"/>
      <point x="-80" y="-123" type="line"/>
      <point x="-760" y="-123" type="line"/>
    </contour>
    <contour>
      <point x="-664" y="-715" type="line"/>
      <point x="-664" y="-209" type="line"/>
      <point x="-468" y="-209" type="line"/>
      <point x="-468" y="-715" type="line"/>
    </contour>
    <contour>
      <point x="-372" y="-715" type="line"/>
      <point x="-372" y="-209" type="line"/>
      <point x="-176" y="-209" type="line"/>
      <point x="-176" y="-715" type="line"/>
    </contour>
    <contour>
      <point x="86" y="-168" type="curve"/>
      <point x="118" y="-149"/>
      <point x="143" y="-119"/>
      <point x="159" y="-71" type="curve"/>
      <point x="132" y="-62"/>
      <point x="119" y="-56"/>
      <point x="93" y="-42" type="curve" smooth="yes"/>
      <point x="68" y="-29"/>
      <point x="46" y="-13"/>
      <point x="21" y="7" type="curve"/>
      <point x="-36" y="-38"/>
      <point x="-95" y="-84"/>
      <point x="-194" y="-136" type="curve"/>
      <point x="-100" y="-136" type="line"/>
      <point x="-72" y="-118"/>
      <point x="-63" y="-112"/>
      <point x="-35" y="-93" type="curve"/>
      <point x="12" y="-131"/>
      <point x="35" y="-146"/>
    </contour>
  </outline>
</glyph>
<glyph name="va_zanb.sub" format="2">
	<advance width="0"/>
	<anchor x="-420" y="-123" name="_bottom"/>
	<anchor x="-420" y="-887" name="bottom"/>
	<outline>
		<contour>
			<point x="-760" y="-801" type="line"/>
			<point x="-664" y="-801" type="line"/>
			<point x="-664" y="-209" type="line"/>
			<point x="-409" y="-209" type="line"/>
			<point x="-409" y="-366" type="line"/>
			<point x="-311" y="-366" type="line"/>
			<point x="-311" y="-209" type="line"/>
			<point x="-80" y="-209" type="line"/>
			<point x="-80" y="-123" type="line"/>
			<point x="-760" y="-123" type="line"/>
		</contour>
		<contour>
			<point x="-360" y="-804" type="curve" smooth="yes"/>
			<point x="-236" y="-804"/>
			<point x="-134" y="-703"/>
			<point x="-134" y="-579" type="curve" smooth="yes"/>
			<point x="-134" y="-456"/>
			<point x="-236" y="-355"/>
			<point x="-360" y="-355" type="curve" smooth="yes"/>
			<point x="-484" y="-355"/>
			<point x="-586" y="-456"/>
			<point x="-586" y="-579" type="curve" smooth="yes"/>
			<point x="-586" y="-703"/>
			<point x="-484" y="-804"/>
		</contour>
		<contour>
			<point x="-360" y="-718" type="curve" smooth="yes"/>
			<point x="-432" y="-718"/>
			<point x="-490" y="-660"/>
			<point x="-490" y="-579" type="curve" smooth="yes"/>
			<point x="-490" y="-498"/>
			<point x="-432" y="-440"/>
			<point x="-360" y="-440" type="curve" smooth="yes"/>
			<point x="-288" y="-440"/>
			<point x="-230" y="-498"/>
			<point x="-230" y="-579" type="curve" smooth="yes"/>
			<point x="-230" y="-660"/>
			<point x="-288" y="-718"/>
		</contour>
	</outline>
</glyph>
<glyph name="zha_zanb.sub" format="2">
	<advance width="0"/>
	<anchor x="-420" y="-123" name="_bottom"/>
	<anchor x="-420" y="-887" name="bottom"/>
	<outline>
		<contour>
			<point x="-760" y="-801" type="line"/>
			<point x="-664" y="-801" type="line"/>
			<point x="-664" y="-209" type="line"/>
			<point x="-176" y="-209" type="line"/>
			<point x="-176" y="-398" type="line"/>
			<point x="-244" y="-398" type="line" smooth="yes"/>
			<point x="-427" y="-398"/>
			<point x="-517" y="-463"/>
			<point x="-517" y="-604" type="curve" smooth="yes"/>
			<point x="-517" y="-740"/>
			<point x="-427" y="-801"/>
			<point x="-244" y="-801" type="curve" smooth="yes"/>
			<point x="-80" y="-801" type="line"/>
			<point x="-80" y="-123" type="line"/>
			<point x="-760" y="-123" type="line"/>
		</contour>
		<contour>
			<point x="-244" y="-715" type="line" smooth="yes"/>
			<point x="-362" y="-715"/>
			<point x="-421" y="-674"/>
			<point x="-421" y="-604" type="curve" smooth="yes"/>
			<point x="-421" y="-528"/>
			<point x="-362" y="-484"/>
			<point x="-244" y="-484" type="curve" smooth="yes"/>
			<point x="-176" y="-484" type="line"/>
			<point x="-176" y="-715" type="line"/>
		</contour>
	</outline>
</glyph>
